<?xml version="1.0" encoding="UTF-8"?><svg xmlns="http://www.w3.org/2000/svg" xmlns:xlink="http://www.w3.org/1999/xlink" height="334.0" preserveAspectRatio="xMidYMid meet" version="1.0" viewBox="0.0 0.0 334.0 334.0" width="334.0" zoomAndPan="magnify"><g id="change1_1"><path d="M288.62,52.68l0.11-0.11l-0.36-0.16C257.91,20.16,214.77,0,167,0C119.24,0,76.1,20.16,45.63,52.41l-0.36,0.16l0.11,0.11 C17.26,82.58,0,122.81,0,167c0,92.09,74.92,167,167,167s167-74.92,167-167C334,122.81,316.74,82.58,288.62,52.68z M232.99,191.84 c-9.29-9.3-18.24-15.36-26.44-19.21h120.34c-0.74,21.24-5.63,41.44-13.9,59.82h-56.03C254.52,220.97,248.01,206.87,232.99,191.84z M148.15,264.9h37.71l5.02,43.21h-47.76L148.15,264.9z M148.96,257.9l4.99-42.89h26.11l4.99,42.89H148.96z M77.04,232.44H21.01 c-8.27-18.37-13.16-38.58-13.9-59.82h120.35c-8.2,3.85-17.15,9.91-26.44,19.21C86,206.87,79.48,220.97,77.04,232.44z M177.01,188.79 l2.23,19.22h-24.48l2.23-19.22L167,178.78L177.01,188.79z M174.05,165.63c2.24-3.61,6.14-8.81,12.36-13.97 c14.79-12.27,35.99-18.76,61.31-18.76c25.32,0,46.52,6.49,61.31,18.76c6.22,5.16,10.12,10.36,12.36,13.97H174.05z M181.56,146.58 c-4.9,4.13-8.5,8.26-11.06,11.77v-11.87c0-0.36-0.01-0.72-0.02-1.09l0.03,0c0.32-14.37,5.84-36.64,30.35-61.15 c17.9-17.9,37.48-28.31,56.62-30.09c8.05-0.75,14.49,0.17,18.62,1.14l-83.21,83.21l0.15,0.15 C188.45,141.26,184.65,143.99,181.56,146.58z M163.5,158.36c-2.56-3.52-6.16-7.65-11.06-11.77c-2.93-2.46-6.51-5.05-10.79-7.53 L57.9,55.3c4.14-0.97,10.57-1.89,18.62-1.14c19.14,1.78,38.72,12.19,56.62,30.09c24.98,24.98,30.3,47.65,30.36,62.25V158.36z M147.6,151.66c6.22,5.16,10.12,10.36,12.36,13.97H12.62c2.24-3.61,6.14-8.81,12.36-13.97c14.79-12.27,35.99-18.76,61.31-18.76 S132.8,139.38,147.6,151.66z M105.97,196.78c24.72-24.74,46.18-24.44,55.72-22.59l-78.09,78.17 C81.77,242.83,81.45,221.32,105.97,196.78z M149.02,196.78l-4.15,35.67h-31.48L149.02,196.78z M184.98,196.78l35.63,35.67h-31.48 L184.98,196.78z M172.32,174.2c9.56-1.85,31.01-2.14,55.72,22.59c24.72,24.75,24.31,46.14,22.41,55.62L172.32,174.2z M326.89,161.21 c-2.57-4-6.71-9.32-13.02-14.63c-11.22-9.44-31.81-20.69-66.15-20.69c-15.12,0-27.57,2.18-37.73,5.43l73.69-73.69 C309.29,84.95,325.46,121.23,326.89,161.21z M273.44,47.65c-4.3-0.67-9.75-1.05-16.12-0.5c-14.61,1.26-37.12,7.86-61.41,32.15 c-16.38,16.38-24.81,31.97-28.91,45.18c-4.12-13.27-12.57-28.83-28.91-45.18c-24.29-24.29-46.8-30.89-61.41-32.15 c-6.37-0.55-11.82-0.17-16.12,0.5C88.86,22.38,126.17,7,167,7C207.84,7,245.14,22.38,273.44,47.65z M124.02,131.32 c-10.16-3.25-22.61-5.43-37.73-5.43c-34.35,0-54.93,11.25-66.15,20.69c-6.31,5.31-10.45,10.63-13.02,14.63 c1.43-39.98,17.59-76.26,43.21-103.58L124.02,131.32z M24.36,239.44h51.62c-1.08,12.38,2.41,20.39,2.7,21.04l2.09,4.6l25.62-25.64 h37.66l-2.15,18.45h-33.07v7h32.26L139,283H81.26v7h56.92l-3.91,33.63C86.25,313.61,46.06,282,24.36,239.44z M141.17,324.91 l1.14-9.8h49.38l1.14,9.8c-8.41,1.37-17.04,2.1-25.83,2.1S149.58,326.28,141.17,324.91z M199.73,323.63L195.82,290h56.95v-7h-57.77 l-2.11-18.11h4.62h27.67v-7h-27.67h-5.43l-2.15-18.45h37.66l25.62,25.64l2.09-4.6c0.29-0.65,3.78-8.66,2.7-21.04h51.62 C287.94,282,247.75,313.61,199.73,323.63z M167,73.89c11.58,0,21-9.42,21-21s-9.42-21-21-21s-21,9.42-21,21S155.42,73.89,167,73.89z M167,38.88c7.72,0,14,6.28,14,14s-6.28,14-14,14c-7.72,0-14-6.28-14-14S159.28,38.88,167,38.88z" fill="inherit"/></g></svg>